:FULLY-SPECIFIED
:FORCE-ALL-JOINTS-BE-3DOF
:DEGREES
747
root 4.19471 16.8427 14.3678 -163.321 -10.786 188.925
lfemur -32.151 0.0275504 -14.5306
ltibia 43.8246 0 0
lfoot -25.6797 4.28176 0
ltoes 5.87016 0 0
rfemur -28.198 -32.6515 10.3434
rtibia 108.043 0 0
rfoot 16.6161 4.77461 0
rtoes 17.3416 0 0
lowerback 2.54587 6.70358 -2.02259
upperback -1.43122 8.79248 -1.40848
thorax -2.94763 4.39596 -0.766007
lowerneck -6.63945 -8.53306 -1.46889
upperneck -2.17209 -11.4875 5.59013
head 0.868461 -5.76958 1.63957
lclavicle 2.12712e-14 1.24901e-14 0
lhumerus -54.0462 -5.98693 73.9996
lradius 47.4705 0 0
lwrist 15.5502 0 0
lhand -28.4635 -4.01773 0
lfingers 7.12502 0 0
lthumb -1.83352 25.9379 0
rclavicle 2.12712e-14 1.24901e-14 0
rhumerus 26.5732 38.2727 -66.2663
rradius 96.1325 0 0
rwrist -0.984848 0 0
rhand -20.3556 -20.6401 0
rfingers 7.12502 0 0
rthumb 5.99563 -770.484 0
748
root 4.13657 16.6329 14.6198 -163.142 -7.83979 188.725
lfemur -33.9787 2.33864 -16.057
ltibia 47.4209 0 0
lfoot -28.9401 6.71875 0
ltoes 5.14024 0 0
rfemur -28.2913 -32.9213 12.566
rtibia 105.543 0 0
rfoot 14.8084 3.57354 0
rtoes 16.4258 0 0
lowerback 2.81547 6.46784 -2.56058
upperback -1.26253 8.45635 -1.52973
thorax -2.99367 4.23761 -0.613588
lowerneck -6.43078 -8.64902 -1.56536
upperneck -2.20329 -11.64 5.9628
head 0.858442 -5.84364 1.77373
lclavicle 2.8469e-14 1.20575e-14 0
lhumerus -53.1136 -4.93548 77.0133
lradius 47.7345 0 0
lwrist 14.6399 0 0
lhand -29.2218 -4.1597 0
lfingers 7.12502 0 0
lthumb -2.56588 25.7969 0
rclavicle 2.8469e-14 1.20575e-14 0
rhumerus 23.4589 41.8473 -69.6605
rradius 96.5667 0 0
rwrist 0.0596269 0 0
rhand -18.8783 -19.187 0
rfingers 7.12502 0 0
rthumb 7.42215 -769.012 0
749
root 4.0667 16.455 14.8619 -163.028 -4.57838 188.626
lfemur -35.5546 4.58278 -17.4491
ltibia 50.3363 0 0
lfoot -31.3866 8.74706 0
ltoes 4.86623 0 0
rfemur -28.1509 -33.1171 14.4801
rtibia 103.027 0 0
rfoot 13.4599 2.38537 0
rtoes 15.8943 0 0
lowerback 3.01931 6.28353 -2.97093
upperback -1.12704 8.19672 -1.68484
thorax -3.01046 4.11638 -0.558462
lowerneck -6.24625 -8.73679 -1.64149
upperneck -2.19233 -11.7486 6.21038
head 0.855103 -5.89205 1.86583
lclavicle 3.33958e-14 1.11319e-14 0
lhumerus -52.5012 -4.35778 79.6448
lradius 48.4536 0 0
lwrist 13.9566 0 0
lhand -29.7329 -4.38371 0
lfingers 7.12502 0 0
lthumb -3.05947 25.5741 0
rclavicle 3.33958e-14 1.11319e-14 0
rhumerus 20.1089 44.7665 -73.1165
rradius 96.4773 0 0
rwrist 0.971849 0 0
rhand -17.7771 -18.1523 0
rfingers 7.12502 0 0
rthumb 8.48546 -767.962 0
750
root 4.05647 16.4356 14.892 -163.026 -4.12833 188.62
lfemur -35.7325 4.86901 -17.6167
ltibia 50.6398 0 0
lfoot -31.6074 8.95924 0
ltoes 4.88186 0 0
rfemur -28.1059 -33.1328 14.6937
rtibia 102.702 0 0
rfoot 13.3508 2.23846 0
rtoes 15.8917 0 0
lowerback 3.03923 6.26501 -3.01055
upperback -1.11288 8.17112 -1.70971
thorax -3.00944 4.1046 -0.562828
lowerneck -6.22477 -8.7454 -1.64953
upperneck -2.18531 -11.7581 6.22768
head 0.855644 -5.89555 1.87287
lclavicle 3.37587e-14 1.09736e-14 0
lhumerus -52.4541 -4.34177 79.9414
lradius 48.6041 0 0
lwrist 13.894 0 0
lhand -29.7735 -4.42473 0
lfingers 7.12502 0 0
lthumb -3.09871 25.5333 0
rclavicle 3.37587e-14 1.09736e-14 0
rhumerus 19.6321 45.0714 -73.5801
rradius 96.4025 0 0
rwrist 1.07515 0 0
rhand -17.6774 -18.0669 0
rfingers 7.12502 0 0
rthumb 8.5817 -767.875 0
751
root 4.02695 16.3855 14.9741 -163.042 -2.86403 188.592
lfemur -36.2199 5.67992 -18.081
ltibia 51.4364 0 0
lfoot -32.1205 9.49686 0
ltoes 4.98382 0 0
rfemur -27.9528 -33.1598 15.2605
rtibia 101.793 0 0
rfoot 13.139 1.83007 0
rtoes 16.013 0 0
lowerback 3.09196 6.2137 -3.11296
upperback -1.07513 8.10095 -1.7876
thorax -3.00409 4.07243 -0.587389
lowerneck -6.16552 -8.76797 -1.67303
upperneck -2.15809 -11.7814 6.26171
head 0.858736 -5.90285 1.88825
lclavicle 3.45265e-14 1.05165e-14 0
lhumerus -52.3239 -4.37155 80.7207
lradius 49.0999 0 0
lwrist 13.7418 0 0
lhand -29.8689 -4.55956 0
lfingers 7.12502 0 0
lthumb -3.19078 25.3993 0
rclavicle 3.45265e-14 1.05165e-14 0
rhumerus 18.1776 45.8601 -74.9225
rradius 96.1225 0 0
rwrist 1.35294 0 0
rhand -17.4352 -17.8746 0
rfingers 7.12502 0 0
rthumb 8.81559 -767.678 0
752
root 3.97995 16.3158 15.0972 -163.102 -0.906269 188.538
lfemur -36.95 6.94063 -18.7844
ltibia 52.5701 0 0
lfoot -32.7353 10.2322 0
ltoes 5.24021 0 0
rfemur -27.6717 -33.1734 16.0789
rtibia 100.397 0 0
rfoot 12.9593 1.20064 0
rtoes 16.3975 0 0
lowerback 3.16718 6.13578 -3.25552
upperback -1.02058 7.99568 -1.92058
thorax -2.99153 4.02434 -0.64554
lowerneck -6.0761 -8.79973 -1.7105
upperneck -2.10413 -11.811 6.29038
head 0.865969 -5.90976 1.90475
lclavicle 3.53094e-14 9.77309e-15 0
lhumerus -52.1277 -4.53927 81.8327
lradius 49.9834 0 0
lwrist 13.5463 0 0
lhand -29.9823 -4.79845 0
lfingers 7.12502 0 0
lthumb -3.30037 25.1619 0
rclavicle 3.53094e-14 9.77309e-15 0
rhumerus 15.7499 46.9632 -77.0546
rradius 95.5764 0 0
rwrist 1.76087 0 0
rhand -17.124 -17.6564 0
rfingers 7.12502 0 0
rthumb 9.11601 -767.453 0
753
root 3.91737 16.2357 15.251 -163.214 1.63482 188.461
lfemur -37.8595 8.57197 -19.6693
ltibia 53.9045 0 0
lfoot -33.3055 11.065 0
ltoes 5.69977 0 0
rfemur -27.253 -33.1562 17.0598
rtibia 98.6027 0 0
rfoot 12.8953 0.379876 0
rtoes 17.1122 0 0
lowerback 3.2548 6.03721 -3.41817
upperback -0.955559 7.86417 -2.10695
thorax -2.96972 3.96445 -0.745617
lowerneck -5.96392 -8.83601 -1.75981
upperneck -2.02059 -11.8404 6.29787
head 0.878122 -5.91284 1.91704
lclavicle 3.58401e-14 8.73739e-15 0
lhumerus -51.8843 -4.90423 83.1489
lradius 51.2645 0 0
lwrist 13.3444 0 0
lhand -30.0816 -5.14163 0
lfingers 7.12502 0 0
lthumb -3.39624 24.8209 0
rclavicle 3.58401e-14 8.73739e-15 0
rhumerus 12.408 48.2359 -79.8645
rradius 94.7335 0 0
rwrist 2.25973 0 0
rhand -16.8021 -17.4737 0
rfingers 7.12502 0 0
rthumb 9.42666 -767.261 0
754
root 3.84115 16.1529 15.4266 -163.375 4.65974 188.372
lfemur -38.8891 10.4904 -20.6787
ltibia 55.3229 0 0
lfoot -33.7291 11.9225 0
ltoes 6.39182 0 0
rfemur -26.6967 -33.098 18.1261
rtibia 96.4923 0 0
rfoot 12.9792 -0.613258 0
rtoes 18.1518 0 0
lowerback 3.34501 5.92372 -3.58352
upperback -0.885989 7.7147 -2.34123
thorax -2.93743 3.89655 -0.890896
lowerneck -5.83616 -8.8723 -1.81817
upperneck -1.90829 -11.8637 6.27465
head 0.895161 -5.90943 1.92165
lclavicle 3.59741e-14 7.3846e-15 0
lhumerus -51.6132 -5.49291 84.5616
lradius 52.9207 0 0
lwrist 13.1633 0 0
lhand -30.1387 -5.57941 0
lfingers 7.12502 0 0
lthumb -3.45136 24.3858 0
rclavicle 3.59741e-14 7.3846e-15 0
rhumerus 8.26505 49.5594 -83.2182
rradius 93.5928 0 0
rwrist 2.81541 0 0
rhand -16.5126 -17.3683 0
rfingers 7.12502 0 0
rthumb 9.70611 -767.146 0
755
root 3.7533 16.0735 15.6162 -163.566 8.07963 188.292
lfemur -39.983 12.6083 -21.7558
ltibia 56.7281 0 0
lfoot -33.9486 12.7596 0
ltoes 7.32636 0 0
rfemur -26.0131 -32.996 19.2135
rtibia 94.1418 0 0
rfoot 13.1922 -1.77053 0
rtoes 19.4385 0 0
lowerback 3.42824 5.8008 -3.7368
upperback -0.817353 7.55492 -2.61418
thorax -2.89425 3.82404 -1.07959
lowerneck -5.69982 -8.90419 -1.88209
upperneck -1.77169 -11.8761 6.21747
head 0.916238 -5.89761 1.91699
lclavicle 3.56892e-14 5.67127e-15 0
lhumerus -51.3356 -6.29898 85.9848
lradius 54.8973 0 0
lwrist 13.0211 0 0
lhand -30.1298 -6.09212 0
lfingers 7.12502 0 0
lthumb -3.44278 23.8761 0
rclavicle 3.56892e-14 5.67127e-15 0
rhumerus 3.48862 50.8395 -86.9587
rradius 92.1833 0 0
rwrist 3.39895 0 0
rhand -16.2829 -17.3621 0
rfingers 7.12502 0 0
rthumb 9.92773 -767.13 0
756
root 3.6559 16.0016 15.8128 -163.754 11.8163 188.248
lfemur -41.089 14.8333 -22.8438
ltibia 58.0427 0 0
lfoot -33.9507 13.5585 0
ltoes 8.49398 0 0
rfemur -25.2222 -32.8546 20.2696
rtibia 91.6204 0 0
rfoot 13.4641 -3.09447 0
rtoes 20.8223 0 0
lowerback 3.49517 5.67371 -3.86586
upperback -0.754703 7.3919 -2.91275
thorax -2.84055 3.75001 -1.30486
lowerneck -5.56165 -8.92743 -1.94745
upperneck -1.61894 -11.8733 6.12936
head 0.939694 -5.87625 1.90336
lclavicle 3.50856e-14 3.53527e-15 0
lhumerus -51.0735 -7.28328 87.3531
lradius 57.1071 0 0
lwrist 12.9261 0 0
lhand -30.0355 -6.65014 0
lfingers 7.12502 0 0
lthumb -3.35171 23.321 0
rclavicle 3.50856e-14 3.53527e-15 0
rhumerus -1.69942 52.0077 -90.9071
rradius 90.5641 0 0
rwrist 3.98648 0 0
rhand -16.1253 -17.4578 0
rfingers 7.12502 0 0
rthumb 10.0798 -767.216 0
757
root 3.55112 15.9402 16.011 -163.892 15.8022 188.28
lfemur -42.1588 17.0692 -23.8864
ltibia 59.2089 0 0
lfoot -33.7665 14.3292 0
ltoes 9.86589 0 0
rfemur -24.3542 -32.6854 21.2547
rtibia 88.9904 0 0
rfoot 13.6734 -4.59831 0
rtoes 22.0807 0 0
lowerback 3.53675 5.54749 -3.96121
upperback -0.702662 7.23209 -3.22013
thorax -2.77754 3.67717 -1.55479
lowerneck -5.42823 -8.93788 -2.00943
upperneck -1.46184 -11.852 6.01962
head 0.963056 -5.845 1.88291
lclavicle 3.43864e-14 8.95788e-16 0
lhumerus -50.8505 -8.37382 88.6229
lradius 59.4305 0 0
lwrist 12.8774 0 0
lhand -29.8407 -7.21389 0
lfingers 7.12502 0 0
lthumb -3.16352 22.7596 0
rclavicle 3.43864e-14 8.95788e-16 0
rhumerus -7.02287 53.0207 -94.8615
rradius 88.8242 0 0
rwrist 4.55928 0 0
rhand -16.0365 -17.6379 0
rfingers 7.12502 0 0
rthumb 10.1652 -767.387 0
758
root 3.44116 15.89 16.2061 -163.917 19.9803 188.431
lfemur -43.1476 19.2152 -24.8276
ltibia 60.1886 0 0
lfoot -33.4715 15.1089 0
ltoes 11.394 0 0
rfemur -23.4492 -32.5073 22.1414
rtibia 86.3078 0 0
rfoot 13.6476 -6.30605 0
rtoes 22.919 0 0
lowerback 3.54418 5.42695 -4.01597
upperback -0.66542 7.08136 -3.51575
thorax -2.70725 3.60789 -1.81242
lowerneck -5.3059 -8.93154 -2.06255
upperneck -1.31586 -11.8095 5.90385
head 0.983037 -5.80425 1.85969
lclavicle 3.39369e-14 -2.34667e-15 0
lhumerus -50.691 -9.46581 89.7714
lradius 61.7156 0 0
lwrist 12.8646 0 0
lhand -29.5343 -7.73382 0
lfingers 7.12502 0 0
lthumb -2.86767 22.241 0
rclavicle 3.39369e-14 -2.34667e-15 0
rhumerus -12.1512 53.8603 -98.5978
rradius 87.0825 0 0
rwrist 5.10374 0 0
rhand -15.9982 -17.8657 0
rfingers 7.12502 0 0
rthumb 10.2021 -767.606 0
759
root 3.32832 15.8505 16.3948 -163.754 24.3045 188.758
lfemur -44.0143 21.1664 -25.6114
ltibia 60.9634 0 0
lfoot -33.1854 15.9624 0
ltoes 13.0107 0 0
rfemur -22.5571 -32.3467 22.9146
rtibia 83.6216 0 0
rfoot 13.1627 -8.25242 0
rtoes 22.97 0 0
lowerback 3.50889 5.31665 -4.02589
upperback -0.646738 6.94496 -3.77523
thorax -2.6325 3.54419 -2.05572
lowerneck -5.20081 -8.90453 -2.10067
upperneck -1.20013 -11.7442 5.80392
head 0.99554 -5.75517 1.8396
lclavicle 3.4205e-14 -6.31028e-15 0
lhumerus -50.621 -10.4216 90.7972
lradius 63.7782 0 0
lwrist 12.8675 0 0
lhand -29.1099 -8.15043 0
lfingers 7.12502 0 0
lthumb -2.4578 21.8238 0
rclavicle 3.4205e-14 -6.31028e-15 0
rhumerus -16.6996 54.5339 -101.869
rradius 85.4879 0 0
rwrist 5.61138 0 0
rhand -15.9763 -18.0845 0
rfingers 7.12502 0 0
rthumb 10.2231 -767.818 0
760
root 3.21493 15.8193 16.5748 -163.312 28.739 189.323
lfemur -44.7216 22.8133 -26.1823
ltibia 61.5343 0 0
lfoot -33.0725 16.9822 0
ltoes 14.6291 0 0
rfemur -21.7379 -32.2369 23.5714
rtibia 80.9744 0 0
rfoot 11.9437 -10.4829 0
rtoes 21.7944 0 0
lowerback 3.42261 5.22093 -3.98938
upperback -0.649944 6.82753 -3.97043
thorax -2.55693 3.48772 -2.25761
lowerneck -5.11889 -8.85312 -2.11697
upperneck -1.13745 -11.6551 5.74798
head 0.995653 -5.6997 1.83044
lclavicle 3.57812e-14 -1.11319e-14 0
lhumerus -50.6675 -11.0708 91.72
lradius 65.4015 0 0
lwrist 12.857 0 0
lhand -28.5651 -8.39425 0
lfingers 7.12502 0 0
lthumb -1.93167 21.5768 0
rclavicle 3.57812e-14 -1.11319e-14 0
rhumerus -20.2288 55.0738 -104.407
rradius 84.2194 0 0
rwrist 6.07882 0 0
rhand -15.9217 -18.2183 0
rfingers 7.12502 0 0
rthumb 10.2757 -767.947 0
